<?xml version="1.0" encoding="UTF-8" standalone="no"?>
<!-- Created with Inkscape (http://www.inkscape.org/) -->

<svg
   version="1.1"
   id="svg1"
   width="16"
   height="16"
   viewBox="0 0 16 16"
   sodipodi:docname="PPS favicon template.svg"
   inkscape:version="1.3 (0e150ed6c4, 2023-07-21)"
   inkscape:export-filename="apple-touch-icon.png"
   inkscape:export-xdpi="96"
   inkscape:export-ydpi="96"
   xmlns:inkscape="http://www.inkscape.org/namespaces/inkscape"
   xmlns:sodipodi="http://sodipodi.sourceforge.net/DTD/sodipodi-0.dtd"
   xmlns="http://www.w3.org/2000/svg"
   xmlns:svg="http://www.w3.org/2000/svg">
  <defs
     id="defs1" />
  <sodipodi:namedview
     id="namedview1"
     pagecolor="#ffffff"
     bordercolor="#000000"
     borderopacity="0.25"
     inkscape:showpageshadow="2"
     inkscape:pageopacity="0.0"
     inkscape:pagecheckerboard="0"
     inkscape:deskcolor="#d1d1d1"
     inkscape:zoom="7.4529054"
     inkscape:cx="19.858027"
     inkscape:cy="22.876984"
     inkscape:window-width="1366"
     inkscape:window-height="705"
     inkscape:window-x="-8"
     inkscape:window-y="-8"
     inkscape:window-maximized="1"
     inkscape:current-layer="g1"
     inkscape:export-bgcolor="#00000000"
     showgrid="false" />
  <g
     inkscape:groupmode="layer"
     inkscape:label="Image"
     id="g1">
    <path
       style="fill:#5c1d06;fill-opacity:1;stroke:#5c1d06;stroke-width:0.268267;stroke-linejoin:bevel"
       d=""
       id="path15" />
    <path
       style="fill:#5c1d06;fill-opacity:1;stroke:#5c1d06;stroke-width:0.268267;stroke-linejoin:bevel"
       d=""
       id="path66" />
    <path
       style="fill:#5c1d06;fill-opacity:1;stroke:#5c1d06;stroke-width:0.268267;stroke-linejoin:bevel"
       d=""
       id="path67" />
    <path
       style="fill:#5c1d06;fill-opacity:1;stroke:#5c1d06;stroke-width:0.268267;stroke-linejoin:bevel"
       d=""
       id="path68" />
    <path
       style="fill:#5c1d06;fill-opacity:1;stroke:#5c1d06;stroke-width:1.51755;stroke-linejoin:bevel"
       d="m 3061.0956,715.31783 c -0.3486,-2.40038 -0.6518,-56.16697 -0.6738,-119.48132 -0.022,-63.31435 -0.2261,-115.30325 -0.4537,-115.5309 -0.2276,-0.22765 -7.9127,-0.95328 -17.0778,-1.61252 -18.1555,-1.30591 -21.1025,-1.8288 -24.2469,-4.30223 -3.491,-2.74602 -4.0217,-5.24333 -4.6108,-21.69817 l -0.549,-15.33263 4.2841,-3.9239 c 2.3563,-2.15814 4.2841,-4.2938 4.2841,-4.74589 0,-0.45209 5.5508,-6.2929 12.3351,-12.97957 l 12.3352,-12.15757 -0.3957,-53.51044 c -0.2176,-29.43074 -0.4742,-52.77229 -0.5704,-51.87012 -0.2288,2.14715 -4.0448,5.3089 -7.5987,6.29592 -3.715,1.03175 -8.9609,1.00432 -11.0321,-0.0577 -3.5944,-1.84309 -6.5914,-5.45114 -6.5914,-7.93538 0,-1.95911 -0.423,-2.59078 -2.2385,-3.34277 -1.2312,-0.50996 -2.6242,-0.79862 -3.0957,-0.64145 -0.8802,0.2934 -9.8461,21.34023 -9.8461,23.11307 0,0.54256 2.1347,2.75631 4.7438,4.91944 6.0574,5.02196 7.1131,6.67103 8.2139,12.83095 0.7923,4.43357 0.7407,5.37679 -0.4295,7.84274 -1.4604,3.07763 -4.7455,5.80922 -6.9863,5.80922 -2.2885,0 -9.5136,-4.70738 -11.2956,-7.35947 -2.2711,-3.37994 -2.9531,-9.29049 -1.4792,-12.81809 2.042,-4.88719 1.461,-5.10322 -3.9544,-1.47031 -2.8134,1.88735 -5.7613,3.43155 -6.551,3.43155 -2.3731,0 -1.0656,-4.55818 3.7441,-13.05284 2.4057,-4.24882 4.0039,-7.8673 3.6368,-8.23436 -0.3601,-0.36013 -2.8045,-1.15629 -5.432,-1.76924 -4.69,-1.0941 -4.8563,-1.07793 -9.1049,0.88576 -5.677,2.62386 -11.3411,2.71869 -16.0924,0.26946 -4.2769,-2.20469 -8.089,-5.80127 -8.6909,-8.19961 -0.7301,-2.90897 0.856,-7.31916 3.5529,-9.87879 4.0881,-3.88003 6.5863,-4.74585 14.0367,-4.86476 9.779,-0.15608 13.5572,2.17033 13.9912,8.61507 0.1766,2.62322 0.4347,2.92345 3.1388,3.65158 1.6204,0.43634 4.858,0.85755 7.1946,0.93601 l 4.2483,0.14267 1.7939,-5.67347 c 2.8102,-8.88762 5.1911,-21.9003 4.1902,-22.90121 -1.8413,-1.84131 -6.3633,0.0709 -10.9769,4.64171 -3.2232,3.19336 -5.3568,4.64003 -7.7215,5.23546 -5.312,1.33758 -10.439,-0.84503 -13.4574,-5.72895 -1.9606,-3.17222 -1.6548,-8.24612 0.7852,-13.02887 2.462,-4.82593 4.9467,-6.12041 12.8207,-6.67932 6.5286,-0.46342 6.9049,-0.40447 8.6669,1.3575 1.0131,1.01308 2.1564,2.37628 2.5407,3.02935 0.3843,0.65306 2.0224,1.39543 3.6401,1.64972 l 2.9414,0.46234 -0.4376,-3.19351 c -1.2802,-9.34347 -4.9429,-24.4604 -5.9764,-24.66627 -2.4109,-0.48025 -4.9441,1.22139 -5.4292,3.64697 -0.6269,3.13445 -4.1617,6.37633 -8.6021,7.88935 -4.4582,1.51905 -6.5617,1.51403 -13.3584,-0.0318 -6.5399,-1.48747 -10.4092,-4.66549 -10.4092,-8.54947 0,-3.97233 6.7867,-10.37643 13.066,-12.32939 4.0498,-1.25954 11.1874,-0.7802 13.5622,0.91077 2.086,1.48541 6.0692,1.88476 10.2788,1.03056 2.0449,-0.41496 2.3401,-0.97586 4.6933,-8.91841 3.0112,-10.16313 6.4622,-17.58457 11.1175,-23.9084 1.897,-2.57693 3.4492,-4.9573 3.4492,-5.28972 0,-0.61417 -4.3713,-2.42739 -5.852,-2.42739 -0.4458,0 -0.7631,0.54971 -0.7051,1.22157 0.058,0.67186 -0.8598,1.95269 -2.0395,2.8463 -2.6941,2.04065 -8.8171,2.12197 -12.6558,0.16808 -2.5476,-1.29668 -20.4964,-18.79998 -20.4905,-19.9819 0.011,-2.17532 3.4587,-5.62014 7.7198,-7.71281 9.9859,-4.90418 18.4323,-4.91717 25.2253,-0.0388 4.0833,2.93245 7.2797,8.52199 7.2797,12.73011 0,1.7969 0.5017,3.57057 1.2105,4.27931 2.126,2.12609 5.6135,3.55664 7.337,3.00962 3.4457,-1.0936 11.9459,-6.73187 11.9459,-7.9238 0,-0.67677 -0.5533,-2.85433 -1.2296,-4.83901 -0.862,-2.52981 -1.8263,-3.86388 -3.2258,-4.46276 -3.8901,-1.66468 -10.6463,-6.8049 -12.5387,-9.5398 -2.4584,-3.55274 -4.2583,-8.67413 -4.2583,-12.11665 0,-3.78195 2.7437,-9.15006 4.961,-9.70659 2.206,-0.55366 8.7033,0.78456 11.965,2.46437 6.9566,3.58271 9.5809,7.25633 10.2216,14.30863 0.1897,2.08729 0.4637,3.92321 0.6089,4.07983 0.1452,0.15662 1.6513,-0.27032 3.3469,-0.94876 1.6956,-0.67845 4.4258,-1.23354 6.0672,-1.23354 2.6895,0 3.2199,0.34259 5.3709,3.4689 2.8098,4.08396 3.7275,3.98899 1.6383,-0.16954 -0.8068,-1.60592 -2.0646,-4.79841 -2.7951,-7.09442 -1.5562,-4.89159 -2.3596,-5.65206 -7.5725,-7.16749 -5.6539,-1.64362 -7.7213,-4.19836 -9.7812,-12.0866 -1.496,-5.72855 -0.7955,-7.72878 3.0704,-8.76807 3.4786,-0.93514 10.725,0.51584 13.79,2.76123 4.5931,3.36479 5.7614,9.88877 2.4098,13.45643 l -1.5408,1.64005 6.1666,8.30803 c 8.6495,11.65314 16.4179,23.35087 18.5542,27.93905 2.0658,4.43667 2.1616,5.78132 0.9787,13.73456 -0.6065,4.07794 -1.1651,5.72361 -1.9429,5.72361 -0.6005,0 -2.8644,-1.66729 -5.0311,-3.70508 -6.3226,-5.94654 -9.3453,-7.68253 -13.3432,-7.66324 -3.4517,0.0166 -3.4768,0.0348 -1.8377,1.32827 3.5756,2.82165 2.9269,8.36178 -1.3091,11.18256 -1.9351,1.28854 -2.2048,1.85318 -1.811,3.79107 0.2544,1.25238 1.3698,2.95967 2.4785,3.79399 1.1088,0.83432 3.3073,2.67671 4.8855,4.0942 l 2.8697,2.57726 2.6923,-3.14544 c 1.4808,-1.72999 2.99,-3.14543 3.3538,-3.14543 0.3638,0 2.4503,1.68847 4.6368,3.75216 2.1865,2.06369 4.3386,3.53945 4.7823,3.27947 0.4438,-0.25998 2.2083,-1.6069 3.9211,-2.99315 1.7129,-1.38625 3.4941,-2.52046 3.9585,-2.52046 0.4642,0 2.0112,1.02467 3.4375,2.27704 1.4264,1.25238 2.9114,2.27704 3.3,2.27704 0.3886,0 1.6883,-1.02466 2.8881,-2.27704 2.7941,-2.91638 4.3542,-2.87263 6.7677,0.18976 l 1.9441,2.46679 0.01,-5.73728 c 0.01,-3.76479 -0.3614,-6.24308 -1.0673,-7.20848 -0.7107,-0.9719 -0.827,-1.77098 -0.3427,-2.35453 0.4791,-0.57727 0.4399,-1.0646 -0.1132,-1.40643 -0.4655,-0.2877 -0.9216,-0.4035 -1.0136,-0.25733 -3.9777,6.32183 -7.9512,9.57906 -10.4948,8.603 -2.1111,-0.81011 -2.9406,-3.25381 -2.2092,-6.50886 1.0342,-4.60281 3.4032,-6.76197 7.4192,-6.76197 h 3.2906 l -2.0005,-3.8259 c -1.1003,-2.10424 -1.8324,-3.994 -1.627,-4.19946 0.2055,-0.20547 1.8179,0.83308 3.5831,2.30787 1.7652,1.47479 3.3433,2.68144 3.5069,2.68144 0.1636,0 1.4124,-1.21652 2.775,-2.70338 2.8754,-3.13764 7.0686,-4.10017 11.4962,-2.63892 2.463,0.81288 2.745,1.18059 2.745,3.57953 0,2.02853 -0.6226,3.29622 -2.5806,5.25423 -2.3204,2.32041 -3.0093,2.58065 -6.8311,2.58065 -3.7547,0 -5.6717,0.9178 -3.4582,1.65564 0.4358,0.14527 1.3286,2.82079 1.9839,5.94561 1.0961,5.22693 1.0879,6.34945 -0.1031,14.03062 -0.7119,4.59203 -1.9291,9.44965 -2.7047,10.79471 -0.7756,1.34506 -1.1712,2.59141 -0.8791,2.76967 0.88,0.53695 328.6378,0.89656 329.1734,0.36117 1.2774,-1.27686 -3.4407,-7.74032 -11.0605,-15.15192 -8.3713,-8.14259 -9.8078,-10.61987 -7.335,-12.64903 0.539,-0.44236 6.7165,-0.89219 14.3054,-1.04171 8.7581,-0.17255 13.7267,-0.57047 14.4314,-1.15575 0.591,-0.49093 2.7778,-1.30873 4.8596,-1.81733 4.8661,-1.18888 5.1567,-1.44382 9.9687,-8.748 5.0101,-7.60476 11.5265,-13.96902 14.3029,-13.96902 2.2899,0 3.4603,2.2155 4.9122,9.29792 0.6811,3.3223 1.2139,4.36432 2.2315,4.36432 0.7351,0 5.2365,-1.42916 10.0031,-3.17592 l 8.6664,-3.17593 19.7343,-0.30581 c 22.2338,-0.34455 25.8009,0.12629 35.737,4.71704 6.981,3.22543 17.2504,9.38407 22.2895,13.36728 2.0836,1.64703 4.3962,2.99587 5.139,2.99743 2.1855,0.005 5.4011,2.33068 14.156,10.23989 12.2299,11.04861 19.5245,21.7819 22.2424,32.72751 2.1398,8.61775 1.815,30.84365 -0.6759,46.25542 -2.2728,14.06165 -3.1661,16.57743 -7.8203,22.02527 -4.1874,4.90147 -8.5695,7.15515 -13.9123,7.15515 -5.1317,0 -8.2627,-1.36161 -11.4324,-4.97172 -7.9513,-9.05608 -7.9975,-21.42561 -0.1533,-41.11489 1.6718,-4.19618 3.6388,-10.48638 4.3711,-13.97823 2.3267,-11.09411 1.663,-26.46268 -1.1429,-26.46268 -0.3292,0 -0.9149,1.26935 -1.3016,2.82078 -1.2048,4.83331 -7.777,7.8069 -17.249,7.80434 l -3.9475,-0.001 0.1767,11.19651 c 0.9238,58.53335 1.8728,106.11193 2.5697,128.82728 l 0.8378,27.30818 5.6361,5.99117 c 6.8316,7.2621 20.2294,23.82925 21.93,27.11788 0.6824,1.31968 1.5462,5.81502 1.9368,10.07972 0.8606,9.39535 1.8272,13.1336 3.6477,14.10794 0.763,0.40831 1.8052,1.75152 2.3161,2.9849 1.3507,3.26102 -0.677,7.14823 -5.0725,9.72418 l -3.3952,1.98972 -15.5438,-0.48354 -15.5439,-0.48355 0.4362,18.77154 c 0.24,10.32434 0.6187,36.874 0.8417,58.99924 0.5192,51.50453 1.7085,127.63484 2.3033,147.43833 l 0.4616,15.37002 h -11.9114 -11.9114 l 0.4582,-10.43643 c 0.252,-5.74004 0.6733,-15.81594 0.9363,-22.39089 0.3768,-9.42221 0.6998,-11.95446 1.5247,-11.95446 0.8292,0 1.0496,-1.85225 1.0611,-8.91841 0.01,-4.90512 0.3324,-21.21442 0.7209,-36.24288 0.3884,-15.02847 1.0637,-49.18406 1.5007,-75.90133 0.4369,-26.71727 0.9281,-54.28708 1.0914,-61.26625 0.3426,-14.64406 1.3578,-13.11758 -9.2244,-13.87094 l -7.0353,-0.50085 -1.1259,2.69464 c -2.5648,6.1385 -2.8817,20.14482 -2.9514,130.43814 l -0.068,108.34863 -7.7798,5.1e-4 -7.7799,5.2e-4 v -6.12161 -6.1216 l -3.9849,-3.93532 c -2.1916,-2.16443 -10.1972,-8.97327 -17.7902,-15.13077 l -13.8054,-11.19544 h -6.4982 c -3.8261,0 -6.4982,-0.31211 -6.4982,-0.75902 0,-0.49936 -19.7614,-0.75901 -57.7662,-0.75901 -49.4219,0 -57.7068,0.15473 -57.3552,1.07118 0.2261,0.58915 0.6076,5.11476 0.8479,10.05693 0.491,10.10274 -0.2058,13.21509 -3.5068,15.662 -2.8365,2.10268 -8.8087,2.56263 -12.225,0.94153 -4.5862,-2.17632 -5.3835,-4.98507 -4.8977,-17.25527 l 0.4147,-10.47637 h -4.8621 -4.8621 v 8.18832 c 0,6.98728 -0.2505,8.68251 -1.7078,11.55758 -4.0784,8.04634 -14.932,8.46941 -20.1113,0.78393 -1.5355,-2.27854 -1.7103,-3.45768 -1.7103,-11.53391 v -8.99592 h -5.0181 -5.018 l 0.4539,2.46679 c 2.4937,13.55165 2.1101,18.7762 -1.6791,22.86388 -5.6178,6.06045 -15.1035,5.37518 -20.3259,-1.46839 -2.4433,-3.20176 -2.7804,-7.07486 -1.524,-17.50813 l 0.6516,-5.41057 -49.9941,-0.56857 c -64.0194,-0.72807 -84.6057,-0.38328 -88.5232,1.48263 -3.7011,1.76282 -27.3876,24.71163 -28.6489,27.75658 -0.6464,1.5607 -0.8291,4.32957 -0.5521,8.37036 l 0.4138,6.03819 h -7.2217 -7.2217 l 0.4588,-27.51423 c 0.2523,-15.13283 0.652,-59.27894 0.8882,-98.10247 0.4073,-66.96647 1.2674,-108.74943 2.3163,-112.52372 l 0.4745,-1.70778 h -11.4737 -11.4737 v 119.9241 119.9241 h -6.3471 -6.3471 z m 53.6541,-33.08962 c 5.9911,-5.25753 11.11,-10.59104 14.8177,-15.43898 l 1.6332,-2.13553 70.0936,-0.50576 c 38.5514,-0.27817 71.0682,-0.80173 72.2596,-1.16346 1.825,-0.55415 2.5583,-1.64514 4.6574,-6.92916 3.0633,-7.71123 4.459,-9.38881 7.5589,-9.08551 2.4911,0.24373 3.6276,1.93954 6.1204,9.13257 2.2032,6.35757 2.9978,6.88947 10.8521,7.26499 7.9279,0.37903 7.2597,1.07954 8.0983,-8.49042 0.7638,-8.71695 3.2422,-12.75666 7.0041,-11.41644 3.1955,1.13839 4.6603,3.97449 5.4657,10.58211 0.4081,3.34797 0.9662,6.67147 1.2402,7.38556 0.6688,1.74276 4.9467,2.83663 11.1137,2.84178 8.8278,0.007 9.9896,-1.01163 11.2449,-9.86294 0.8589,-6.05619 1.6928,-8.11153 4.0736,-10.04005 3.9562,-3.2046 6.3862,-0.66094 7.7994,8.1641 0.5731,3.57875 1.5342,7.68498 2.1359,9.12496 l 1.0939,2.61816 h 64.1706 64.1706 l 7.7846,5.69164 c 4.2816,3.13039 11.2995,8.33912 15.5954,11.57495 4.296,3.23582 8.1385,5.99717 8.5389,6.13632 0.4254,0.14782 0.7282,-2.2821 0.7282,-5.84464 0,-4.476 0.2866,-6.25906 1.0776,-6.70461 0.9157,-0.51579 1.1942,-15.25711 1.8536,-98.12089 0.4268,-53.63265 0.6389,-97.65094 0.4714,-97.81842 -0.1675,-0.16749 -88.013,0.10404 -195.2122,0.6034 -176.7,0.82309 -224.9207,1.33902 -225.9997,2.41803 -0.5151,0.51505 0.948,184.14112 1.561,195.91621 0.2771,5.32258 0.7604,9.67742 1.0739,9.67742 0.3136,0 3.4291,-2.50892 6.9235,-5.57539 z m 479.5981,-225.54415 v -7.21063 h -9.7636 c -11.3444,0 -16.7051,0.83993 -19.7558,3.0954 -1.956,1.44612 -3.7567,1.69324 -17.262,2.36888 -18.0083,0.90094 -435.8504,0.11813 -463.5013,-0.86834 -17.7161,-0.63204 -18.1172,-0.68221 -20.9063,-2.61507 -2.2205,-1.53882 -4.278,-2.11604 -9.3889,-2.63408 -4.5241,-0.45857 -7.3777,-1.17801 -9.2416,-2.32995 -2.0467,-1.26492 -4.3696,-1.77493 -9.6391,-2.11633 -6.6591,-0.43142 -6.9232,-0.38878 -6.4683,1.04439 0.3673,1.15723 1.8568,14.17801 1.9605,17.13785 0.03,0.85257 30.0668,0.96591 307.2302,1.15934 l 256.7362,0.17916 z m -515.0717,-14.48333 c 0.5914,-1.54127 0.5757,-6.26226 -0.028,-8.51767 -0.3617,-1.35039 -0.9211,-1.6961 -2.4564,-1.51802 -1.9168,0.22233 -1.9961,0.42791 -2.2111,5.73344 l -0.223,5.50285 h 2.2291 c 1.3324,0 2.4144,-0.48293 2.6898,-1.2006 z m 10.6262,0 c 0.5858,-1.52655 0.468,-6.19872 -0.2184,-8.66658 -0.3798,-1.36539 -1.0504,-1.89753 -2.3912,-1.89753 -1.7603,0 -1.8759,0.26834 -2.0921,4.85364 -0.1259,2.6695 -0.051,5.31656 0.1659,5.88235 0.5467,1.42454 3.973,1.2947 4.5358,-0.17188 z m 7.5901,0 c 0.9821,-2.55931 0.1747,-8.66658 -1.1458,-8.66658 -0.3688,0 -0.6705,2.22012 -0.6705,4.93359 0,4.68428 0.8114,6.35185 1.8163,3.73299 z m 10.9351,0.28978 c 0.9972,-0.99717 1.2197,-5.80581 0.33,-7.12922 -0.3067,-0.45619 -1.6677,-1.04537 -3.0245,-1.3093 l -2.4668,-0.47989 v 4.91461 c 0,4.87666 0.016,4.91462 2.1253,4.91462 1.1688,0 2.5351,-0.40987 3.036,-0.91082 z m 10.3173,-0.28978 c 0.6815,-1.77591 0.5374,-6.61128 -0.2333,-7.82841 -0.369,-0.58265 -1.2176,-0.84954 -1.8859,-0.59308 -0.9283,0.35622 -1.2152,1.54685 -1.2152,5.04419 0,3.98564 0.1859,4.5779 1.4369,4.5779 0.7902,0 1.6441,-0.54027 1.8975,-1.2006 z m 9.3867,-2.97398 c 0.222,-4.27054 -0.5997,-6.13749 -2.3978,-5.44751 -0.9304,0.35703 -1.2151,1.55124 -1.2151,5.09698 0,4.36805 0.097,4.61693 1.7078,4.38814 1.4788,-0.21002 1.7342,-0.75141 1.9051,-4.03761 z m 14.128,3.35319 c 0.157,-0.17443 0.526,-2.3011 0.8201,-4.72596 l 0.5347,-4.40882 -4.804,0.52362 c -2.6422,0.28799 -5.0602,0.66973 -5.3733,0.8483 -0.3131,0.17858 -0.5693,1.95539 -0.5693,3.94846 0,1.99307 0.2562,3.88442 0.5693,4.203 0.56,0.56983 8.2655,0.23043 8.8225,-0.3886 z m 14.5172,-4.1122 v -4.55408 h -3.7951 -3.7951 l -0.227,4.78479 -0.227,4.7848 4.0221,-0.23072 4.0221,-0.23071 z m 10.6261,0 v -4.55408 h -2.277 c -2.2657,0 -2.2782,0.0238 -2.5043,4.79472 l -0.2273,4.79472 2.5043,-0.24064 2.5043,-0.24064 z m 12.1443,0 c 0,-4.35051 -0.089,-4.5644 -1.9919,-4.78504 -3.7434,-0.43406 -5.4603,3.19318 -3.7012,7.81981 0.6365,1.67428 1.1552,1.95682 3.2258,1.75719 l 2.4673,-0.23788 z m 10.8538,0.18975 c 0.2159,-4.13951 0.1357,-4.36432 -1.556,-4.36432 -2.5097,0 -3.6052,1.38385 -3.6052,4.55408 0,3.14178 1.2141,4.70765 3.4067,4.39341 1.2955,-0.18568 1.5613,-0.88019 1.7545,-4.58317 z m 15.3321,-0.22597 v -4.9698 l -4.7438,0.22597 -4.7438,0.22597 -0.2426,2.9637 c -0.1334,1.63004 -0.042,3.76476 0.2042,4.74384 0.4064,1.61927 0.857,1.78013 4.9864,1.78013 h 4.5396 z m 10.2467,0.0362 v -4.55408 h -2.277 c -2.0999,0 -2.296,0.23061 -2.5197,2.9637 -0.4022,4.91469 0.345,6.65774 2.7359,6.38208 1.9863,-0.22904 2.0608,-0.40215 2.0608,-4.7917 z m 15.4062,0.18975 -0.2259,-4.74383 h -3.7951 -3.7951 l -0.2259,4.74383 -0.226,4.74384 h 4.247 4.247 z m 12.1861,4.06989 c 0.6285,-0.39826 1.0702,-2.23415 1.1386,-4.73221 l 0.1116,-4.08151 h -3.036 -3.0361 l -0.226,4.74383 -0.2259,4.74384 2.1235,-0.0116 c 1.1679,-0.006 2.5856,-0.30444 3.1503,-0.66232 z m 11.0855,-3.69038 c -0.5773,-4.83909 -1.1884,-5.92514 -2.9532,-5.24795 -0.8334,0.31982 -1.1895,1.46753 -1.1895,3.83378 0,4.56986 0.5841,5.7785 2.7924,5.7785 1.832,0 1.8601,-0.0908 1.3503,-4.36433 z m 13.203,3.69038 c 0.6284,-0.39826 1.0701,-2.23415 1.1385,-4.73221 l 0.1116,-4.08151 h -3.795 -3.7951 l -0.226,4.74383 -0.2259,4.74384 2.8825,-0.0116 c 1.5854,-0.006 3.3446,-0.30444 3.9094,-0.66232 z m 13.0148,-2.3127 c 0,-4.86674 -1.1535,-7.02331 -3.6057,-6.74116 -1.6707,0.19225 -2.1371,0.68028 -2.3386,2.4473 -0.1385,1.21394 -0.038,3.34866 0.2241,4.74383 0.4306,2.29488 0.7259,2.53668 3.0981,2.53668 2.5459,0 2.6221,-0.0868 2.6221,-2.98665 z m 10.2588,2.20812 c 0.2646,-0.42819 0.6767,-2.6737 0.9158,-4.99003 l 0.4347,-4.21151 -2.5788,0.2462 -2.5789,0.2462 -0.2259,4.74383 c -0.2196,4.60887 -0.1723,4.74384 1.663,4.74384 1.0389,0 2.1054,-0.35034 2.3701,-0.77853 z m 14.6351,-3.96531 -0.2259,-4.74383 h -3.7951 -3.7951 l -0.2351,3.69863 c -0.341,5.36393 -0.016,5.78904 4.4221,5.78904 h 3.8551 z m 13.6623,0 -0.226,-4.74383 -2.577,-0.24606 c -1.5497,-0.14798 -2.8309,0.15456 -3.2141,0.75902 -0.7586,1.19649 -0.8781,7.74512 -0.1545,8.46869 0.2783,0.27831 1.8316,0.50602 3.4518,0.50602 h 2.9457 z m 12.9021,0.0913 0.2249,-4.27302 -2.5019,-0.38044 c -1.3761,-0.20924 -2.7581,-0.23017 -3.0712,-0.0465 -0.7256,0.42561 -0.7493,8.16042 -0.027,8.88246 0.2981,0.29809 1.5789,0.4404 2.8463,0.31625 2.2359,-0.21902 2.311,-0.35266 2.5292,-4.49874 z m 9.2816,2.70558 c 0.4071,-1.07082 0.7402,-3.29093 0.7402,-4.93359 0,-2.44592 -0.2656,-2.98664 -1.4669,-2.98664 -1.9006,0 -2.6064,2.32992 -1.9771,6.52658 0.5635,3.75728 1.6017,4.29242 2.7038,1.39365 z m 14.2443,-2.22675 c -0.1904,-2.29553 -0.4888,-4.31025 -0.6632,-4.47715 -0.1745,-0.1669 -1.8542,-0.42346 -3.7327,-0.57014 l -3.4156,-0.26668 -0.232,3.1968 c -0.354,4.87867 0.7475,6.29087 4.9068,6.29087 h 3.4828 z m 12.6819,-0.38038 v -4.17458 h -3.4156 -3.4156 l -0.2289,4.40752 -0.2289,4.40751 3.6445,-0.23294 3.6445,-0.23294 z m 14.8007,-0.38848 v -4.94256 l -3.2258,0.48552 c -4.12,0.62012 -4.4477,0.96026 -4.4989,4.66911 -0.058,4.17896 0.4499,4.73049 4.354,4.73049 h 3.3707 z m 11.3585,3.47443 c 0.4322,-0.80747 0.7857,-3.02759 0.7857,-4.93359 0,-3.31483 -0.095,-3.46546 -2.1925,-3.46546 -1.9147,0 -2.2573,0.34483 -2.7029,2.72018 -0.7295,3.88832 0.1337,7.147 1.893,7.147 0.787,0 1.7846,-0.66067 2.2167,-1.46813 z m 9.7181,-3.80029 c 0.2971,-3.09162 0.1441,-3.83974 -0.7849,-3.83974 -1.4454,0 -2.0754,1.5933 -2.0754,5.24866 0,5.68196 2.2872,4.55534 2.8603,-1.40892 z m 13.0523,3.80029 c 0.4322,-0.80747 0.7857,-3.02759 0.7857,-4.93359 v -3.46546 h -2.953 c -2.8261,0 -2.9667,0.11756 -3.2724,2.73607 -0.1757,1.50484 -0.1743,3.72495 0,4.93359 0.2693,1.8348 0.6797,2.19752 2.4867,2.19752 1.3629,0 2.4551,-0.54361 2.9499,-1.46813 z m 141.582,-0.0496 1.9957,-0.75874 -1.6804,-2.98979 c -0.9242,-1.64439 -3.1953,-4.46235 -5.047,-6.26213 l -3.3666,-3.27233 0.483,5.31309 c 0.7635,8.39853 0.8924,8.72865 3.4065,8.72865 1.2172,0 3.1112,-0.34143 4.2088,-0.75875 z m -127.2841,-3.98508 -0.2294,-3.98482 h -3.4156 -3.4155 l -0.2295,3.98482 -0.2294,3.98482 h 3.8744 3.8744 z m 13.3673,1.13852 c -0.7537,-4.17504 -1.66,-5.50285 -3.7563,-5.50285 -1.7616,0 -1.8708,0.2436 -1.8708,4.17458 v 4.17457 h 3.0705 3.0704 z m 8.9328,2.09765 c 1.5753,-0.0128 2.3634,-2.26509 1.7073,-4.8794 -0.4039,-1.60917 -0.9384,-1.96208 -2.9719,-1.96208 -2.1697,0 -2.5386,0.29625 -2.9537,2.37191 -0.8924,4.4618 -0.6476,5.44169 1.2334,4.9376 0.9392,-0.25172 2.2825,-0.46233 2.9849,-0.46803 z m 17.7927,-1.25547 c 0.2767,-1.10227 0.1896,-2.89544 -0.1935,-3.98482 -0.6362,-1.80898 -1.0569,-1.9807 -4.8529,-1.9807 h -4.1563 l -0.2294,3.98482 -0.2294,3.98482 h 4.5793 c 4.3165,0 4.6081,-0.11501 5.0822,-2.00412 z m 11.9685,0.80352 c 0.5705,-1.4867 0.5965,-4.39337 0.052,-5.81222 -0.4761,-1.24073 -4.948,-0.87611 -5.8416,0.47631 -0.3067,0.46415 -0.5629,2.12474 -0.5693,3.69021 -0.012,2.80363 0.033,2.8463 2.9432,2.8463 1.9943,0 3.1047,-0.39031 3.4156,-1.2006 z m 10.7283,-0.38342 c 0.877,-2.76309 -0.2783,-6.76513 -1.9529,-6.76513 -1.2923,0 -1.4836,0.53827 -1.4836,4.17458 0,3.62004 0.1949,4.17457 1.4669,4.17457 0.8206,0 1.6884,-0.69785 1.9696,-1.58402 z m 10.5241,0.38342 c 0.6585,-1.71611 0.548,-5.07654 -0.2061,-6.26619 -0.3539,-0.55834 -1.4587,-0.8999 -2.4551,-0.75901 -1.6113,0.22783 -1.8371,0.69688 -2.0411,4.24098 -0.2279,3.95704 -0.2139,3.98482 2.006,3.98482 1.3383,0 2.4204,-0.48185 2.6963,-1.2006 z m 12.0288,0.25183 c 0.6786,-0.52259 1.3354,-2.31254 1.4622,-3.98482 l 0.2302,-3.03605 -3.025,0.26459 c -4.004,0.35023 -4.9224,1.23867 -4.9224,4.76193 0,2.82518 0.1006,2.94312 2.5114,2.94312 1.3813,0 3.0659,-0.42695 3.7436,-0.94877 z m 14.0897,-3.90387 0.2309,-4.47313 -3.5197,0.48242 c -1.9358,0.26533 -3.8328,0.676 -4.2157,0.91261 -0.3828,0.23661 -0.696,2.13566 -0.696,4.22014 v 3.78993 l 3.9848,-0.22942 3.9848,-0.22942 z m 14.9494,-0.46045 v -4.93359 l -4.1746,0.26877 c -2.296,0.14783 -4.4307,0.42416 -4.7438,0.61406 -0.7239,0.43906 -0.7501,8.17101 -0.03,8.89095 0.2965,0.29653 2.4312,0.43884 4.7438,0.31626 l 4.2047,-0.22287 z m -477.1155,-3.74732 0.076,-4.12682 -2.2085,2.11584 c -3.1128,2.98225 -3.3267,4.61882 -0.97,7.41962 l 2.0029,2.38034 0.5121,-1.83108 c 0.2817,-1.00709 0.5462,-3.68815 0.5878,-5.9579 z m 514.3961,-0.61701 c -2.1553,-4.13263 -8.4861,-11.90972 -10.7811,-13.24396 -1.2886,-0.74918 -3.909,-1.5768 -5.8232,-1.83916 -4.02,-0.551 -10.4296,0.23277 -10.4296,1.27535 0,1.14854 10.7415,12.12063 13.0187,13.29827 1.1474,0.59332 3.7255,1.11281 5.7291,1.15442 2.0037,0.0416 4.4969,0.34912 5.5406,0.68335 3.5567,1.13908 3.9364,0.95537 2.7455,-1.32827 z m -533.2958,-1.06814 c 1.4611,-0.89744 2.2806,-1.76152 1.8211,-1.92016 -0.4595,-0.15865 1.846,-2.89789 5.1234,-6.0872 3.2773,-3.18931 5.9587,-6.08108 5.9587,-6.42614 0,-1.18724 -8.6867,-0.68291 -10.647,0.61814 -2.422,1.60748 -15.1594,14.09974 -15.1594,14.86767 0,0.3218 2.3055,0.58381 5.1233,0.58225 3.909,-0.002 5.753,-0.38959 7.7799,-1.63456 z m 432.931,-10.3756 c -0.2818,-1.53326 -0.8901,-3.0387 -1.3517,-3.3454 -1.2252,-0.81403 -4.8868,-0.70228 -6.5739,0.20063 -1.3567,0.72607 -3.7507,4.43829 -3.7548,5.82216 0,0.33383 2.742,0.49523 6.0955,0.35867 l 6.0973,-0.24828 z m -114.9044,-0.63073 v -3.53557 l -14.2315,0.56589 c -7.8274,0.31124 -15.5093,0.52237 -17.071,0.46917 -3.5143,-0.11971 -5.8892,1.07852 -5.8892,2.97135 0,1.31596 0.6781,1.44008 8.1156,1.4855 4.4636,0.0273 8.4598,0.39373 8.8805,0.81439 0.4341,0.43411 4.966,0.76484 10.4802,0.76484 h 9.7154 z m 38.7096,0.86024 c 0,-2.21546 -0.3588,-2.81508 -2.0872,-3.48829 -1.9293,-0.75139 -17.9956,-0.6241 -18.6782,0.14798 -0.157,0.17767 -0.5171,1.60388 -0.8001,3.16934 l -0.5146,2.8463 h 11.0401 11.04 z m 50.0949,-0.74023 v -3.41556 l -14.611,0.0563 c -8.036,0.0309 -16.1344,0.28711 -17.9962,0.56926 -3.0512,0.46237 -3.4345,0.75397 -3.8838,2.95436 -0.2742,1.34274 -0.3163,2.62357 -0.094,2.8463 0.2227,0.22272 8.5454,0.40494 18.4948,0.40494 h 18.0898 z m 49.7154,0 v -3.03605 l -3.7951,0.26493 c -4.5707,0.31908 -5.6926,1.11501 -5.6926,4.03879 v 2.22032 l 4.7439,-0.22596 4.7438,-0.22598 z m 36.5517,1.65192 c 0.9581,-0.95811 -1.5455,-3.55802 -4.1128,-4.27102 -3.0997,-0.86083 -11.4857,-1.07093 -13.4015,-0.33575 -0.7819,0.30006 -1.2006,1.3977 -1.2006,3.14774 v 2.68702 l 9.1658,-0.4223 c 5.0411,-0.23226 9.3383,-0.59482 9.5491,-0.80569 z m -452.8705,-0.74784 c 0,-0.5464 -0.5402,-1.65645 -1.2005,-2.46679 -1.0985,-1.34822 -1.163,-1.35526 -0.759,-0.083 0.2428,0.76469 0.4415,1.87475 0.4415,2.46679 0,0.59204 0.3415,1.07644 0.759,1.07644 0.4174,0 0.759,-0.44705 0.759,-0.99345 z m 21.4143,-1.28359 c -0.3056,-2.08212 -0.5867,-2.27704 -3.2841,-2.27704 -2.8619,0 -5.986,1.98064 -5.986,3.79507 0,0.42603 2.1067,0.75901 4.8021,0.75901 h 4.8022 z m 43.3474,1.70778 c 0.1844,-0.31309 0.054,-1.31225 -0.2893,-2.22037 -0.609,-1.6103 -0.9304,-1.64782 -13.0038,-1.51803 l -12.3794,0.13309 -0.2402,2.08729 -0.2401,2.08728 h 12.9088 c 7.0999,0 13.0597,-0.25616 13.244,-0.56926 z m 30.874,-0.50718 c 0,-2.84912 -0.8986,-3.47764 -4.9718,-3.47764 -3.325,0 -4.2619,0.30207 -5.2319,1.68692 -0.6498,0.92779 -1.1815,1.95246 -1.1815,2.27704 0,0.32457 2.5616,0.59012 5.6926,0.59012 4.4081,0 5.6926,-0.24287 5.6926,-1.07644 z m 55.3721,0.33959 c 0.7137,-0.44111 0.7446,-0.97496 0.1234,-2.13559 -0.7922,-1.4802 -1.538,-1.55049 -17.1562,-1.61672 l -16.3279,-0.0692 v 2.28991 2.2899 l 16.2045,-0.0851 c 8.9126,-0.0468 16.6328,-0.34973 17.1562,-0.67319 z m 35.0451,-0.97694 c 1.2975,-2.31896 0,-2.86074 -6.6105,-2.76775 -5.614,0.0789 -6.5557,0.29072 -7.5398,1.69574 -0.6186,0.88305 -1.1246,1.80983 -1.1246,2.05953 0,0.24968 3.2689,0.42985 7.2641,0.40037 6.1065,-0.0451 7.3832,-0.26625 8.0108,-1.38789 z m 35.7418,-0.55677 -0.3437,-2.34198 -6.1714,0.21898 c -5.9963,0.21277 -6.1779,0.27434 -6.3984,2.16907 l -0.2269,1.95008 6.7421,0.17292 6.7421,0.17291 z m 179.1541,-16.45051 c 44.413,-0.44139 50.6641,-0.64466 50.6641,-1.64747 0,-0.62917 -3.2655,-10.83162 -7.2567,-22.67209 -7.8211,-23.20228 -8.2292,-25.555 -4.7684,-27.4882 4.5986,-2.56874 6.897,0.72678 16.2509,23.30081 5.9863,14.44703 11.009,25.21664 11.7604,25.21664 1.5559,0 2.8485,-39.23889 3.4904,-105.96003 l 0.5046,-52.4496 -2.2107,-0.53003 c -4.1025,-0.98361 -153.5148,-1.97416 -218.15,-1.44627 -35.2751,0.28811 -89.241,0.56968 -119.9241,0.62572 -30.6831,0.056 -79.611,0.37487 -108.7287,0.7085 l -52.9411,0.6066 0.021,11.48061 c 0.012,6.31435 0.3412,21.55653 0.7324,33.87152 0.7132,22.45109 1.1709,43.12592 1.922,86.82417 0.2217,12.89561 0.6028,23.76977 0.8469,24.16481 0.2442,0.39503 0.7289,0.43232 1.0773,0.0828 0.3483,-0.34946 3.691,-9.00351 7.4281,-19.23121 12.1747,-33.31993 12.9715,-34.91462 17.4445,-34.91462 2.7812,0 3.9478,1.3762 4.4706,5.27364 l 0.4099,3.05612 127.2111,-0.0345 c 69.9661,-0.019 127.3031,0.24154 127.4154,0.57896 0.1124,0.33742 39.5159,0.51328 87.5633,0.39079 65.6921,-0.16747 87.6235,-0.003 88.4252,0.6622 1.395,1.15771 1.4922,10.95998 0.1175,11.84967 -0.5218,0.33773 -95.9013,0.64685 -211.9544,0.68694 -116.0532,0.0401 -213.6361,0.21086 -216.851,0.3795 -3.2148,0.16865 -6.208,0.66984 -6.6515,1.11376 -0.9082,0.90914 -11.2767,28.30696 -11.909,31.46841 -0.3764,1.88196 -0.1794,2.07723 2.511,2.4893 1.6057,0.24593 55.5191,0.50361 119.8075,0.57261 64.2884,0.069 124.2315,0.36931 133.2068,0.66733 22.7863,0.75662 97.9091,0.90044 158.0645,0.30261 z m -444.1356,-141.43073 0.2322,-20.87286 -5.1764,-0.57552 c -2.847,-0.31653 -6.3472,-1.13109 -7.7781,-1.81013 -4.612,-2.18854 -5.9493,-7.52276 -2.7704,-11.05065 1.4699,-1.63126 6.7831,-2.64382 16.8835,-3.21756 4.3556,-0.24741 8.0512,-0.5817 8.2123,-0.74284 0.1612,-0.16116 -0.3762,-1.60695 -1.1942,-3.21286 -2.2554,-4.42784 -3.9259,-10.72414 -3.983,-15.01208 l -0.051,-3.84706 -1.0143,3.78003 c -0.5797,2.16013 -1.6962,4.23273 -2.6053,4.83641 -1.2863,0.85406 -1.591,1.83613 -1.591,5.12761 0,3.91745 -0.1162,4.14809 -3.0748,6.10603 -4.5855,3.03455 -9.0402,2.84362 -12.528,-0.53694 -2.4361,-2.36112 -3.332,-4.35606 -4.4827,-9.98198 -0.3271,-1.59932 -0.9803,-2.15913 -2.9507,-2.52877 -5.767,-1.08191 -6.7101,-0.49237 -9.1519,5.72133 -1.8442,4.69281 -2.263,6.94614 -2.3847,12.82996 -0.081,3.92555 0.065,8.87811 0.3245,11.00569 0.4378,3.58708 0.6653,3.93421 3.1287,4.77427 3.4515,1.17701 8.2476,1.21595 12.417,0.1008 4.2258,-1.13024 7.3319,0.016 10.1871,3.75938 1.7982,2.35758 2.0506,3.45166 2.315,10.03345 0.2829,7.0425 0.214,7.44523 -1.4744,8.62785 -2.204,1.54378 -9.5966,1.66106 -13.0326,0.20676 -3.8164,-1.61531 -5.2874,-3.82009 -5.9935,-8.98317 -0.6269,-4.584 -2.1939,-7.44038 -4.0816,-7.44038 -0.747,0 -0.7311,0.99709 0.075,4.74384 0.5616,2.60911 1.2464,10.44563 1.5218,17.4145 l 0.5008,12.67067 2.0084,0.25874 c 1.1046,0.1423 3.5454,-0.1763 5.4239,-0.708 7.6984,-2.17892 10.6512,-0.89746 17.2176,7.47186 l 3.6553,4.65888 0.4916,-6.3672 c 0.2703,-3.50196 0.5961,-15.75998 0.7238,-27.24006 z m 51.0151,-41.95254 c 4.5142,-1.88759 8.4056,-3.62988 8.6475,-3.87176 1.1027,-1.10273 -2.1595,-1.21925 -4.2254,-0.15092 -3.3445,1.72954 -5.032,1.48714 -8.0414,-1.15518 l -2.6749,-2.34861 -3.1936,2.34861 c -4.2091,3.09543 -6.3337,3.00428 -9.8428,-0.42226 l -2.8376,-2.77088 -2.7236,2.39137 c -1.498,1.31526 -3.2033,2.39137 -3.7896,2.39137 -0.5863,0 -2.6445,-1.36622 -4.5738,-3.03605 -4.2914,-3.71412 -6.5977,-4.16194 -4.2172,-0.81885 5.189,7.28731 15.5659,11.73955 25.849,11.09067 1.9024,-0.12005 7.0518,-1.73597 11.6234,-3.64751 z m -62.8579,-17.06074 c -2.4851,-6.07882 -1.8677,-10.41109 1.8623,-13.0671 1.9136,-1.36258 3.6519,-5.33897 2.334,-5.33897 -2.2069,0 -18.2379,13.65739 -18.2362,15.53601 10e-4,1.27552 7.7011,4.11507 11.2759,4.15832 2.858,0.0346 3.2333,-0.14035 2.764,-1.28826 z m 12.4052,-17.70795 c 0.9729,-2.12077 1.6348,-3.99007 1.4709,-4.154 -0.4204,-0.42039 -5.9053,1.1546 -5.9053,1.69571 0,1.14662 1.8102,6.31425 2.2118,6.31425 0.2495,0 1.2496,-1.73518 2.2226,-3.85596 z m 29.7783,-7.42245 c -0.697,-1.30236 -9.4339,-13.39833 -10.6437,-14.73595 -0.4112,-0.45466 -9.1478,7.3944 -9.1478,8.21852 0,0.10421 2.1348,0.41846 4.7439,0.69832 5.0874,0.5457 11.6094,3.23435 13.8491,5.70921 1.7217,1.9024 2.1804,1.94446 1.1985,0.1099 z m 402.9789,0.31751 c 0,-0.18409 -0.3415,-0.54581 -0.759,-0.80381 -0.4174,-0.258 -0.759,-0.10738 -0.759,0.33471 0,0.4421 0.3416,0.80381 0.759,0.80381 0.4175,0 0.759,-0.15062 0.759,-0.33471 z m -427.8287,-7.29856 c -2.5733,-0.33531 -5.7327,-1.15466 -7.0209,-1.82078 -2.2336,-1.15508 -2.342,-1.14199 -2.342,0.28275 0,1.59945 2.1056,2.03332 10.2467,2.11132 3.7547,0.036 3.7454,0.0299 -0.8838,-0.57329 z"
       id="path130" />
    <path
       style="fill:#5c1d06;fill-opacity:1;stroke:#5c1d06;stroke-width:1;stroke-linejoin:bevel;stroke-opacity:1;stroke-dasharray:none"
       d="M 4.5312227,15.186552 C 3.3510867,14.968858 2.579603,13.92555 3.0607758,13.19801 3.3731919,12.725634 4.1391705,12.499738 4.800041,12.685085 c 0.3716482,0.104234 0.7544683,0.401817 0.8571997,0.666343 0.2809914,0.723532 -0.8507459,1.370344 -1.8445026,1.054174 -0.1076182,-0.03425 -0.111053,-0.02543 -0.02509,0.06443 0.1818573,0.190078 0.8695054,0.361296 1.4510298,0.361296 0.6027724,0 1.0731635,-0.158423 1.3189712,-0.444216 C 6.7093396,14.21074 7.255859,11.870779 7.161904,11.799941 7.130134,11.775991 6.8702141,11.707961 6.5843025,11.648763 5.7501924,11.476066 5.163355,11.198782 4.5764669,10.700043 3.503378,9.7881322 3.1793195,8.6943533 3.65837,7.6012334 4.0425958,6.7244881 5.7063918,5.7065222 8.3566959,4.7266418 L 9.1788272,4.4226803 9.2761212,3.9314591 C 9.389927,3.3568665 9.6199666,2.7735212 9.8555743,2.4620551 10.201056,2.0053371 11.368776,1.160847 12.005483,0.90725055 c 0.476841,-0.1899236 0.710693,-0.1881806 0.92636,0.0069 0.166122,0.15026835 0.170898,0.18348485 0.129339,0.89929625 -0.05762,0.9924451 -0.167533,1.2424314 -0.748855,1.7031994 C 11.613384,4.0706398 11.123332,4.3270155 10.186044,4.6290308 7.9655909,5.3445145 6.6068171,5.8882153 5.721058,6.4156588 5.0099295,6.8391153 4.8306133,7.0167892 4.4612182,7.6639598 4.220355,8.085945 4.1707601,8.2387572 4.1707601,8.5589186 c 0,0.8752314 0.3367186,1.6154734 0.9922789,2.1814254 0.407739,0.352005 1.209315,0.714286 1.7332274,0.78335 0.3835244,0.05056 0.3411094,0.184922 0.5396382,-1.7094978 C 7.5195669,9.0158733 7.6053487,8.2732538 7.6265305,8.1639297 L 7.6650419,7.9651604 7.3474583,8.024824 c -0.6912921,0.129863 -1.4975715,0.7772522 -1.593472,1.279457 -0.046411,0.2430532 0.078444,0.6181282 0.2917506,0.876426 0.080475,0.09745 0.1283912,0.192417 0.1064802,0.211037 C 6.0736828,10.458481 5.586892,9.7450712 5.5105263,9.4513234 5.3671847,8.8999448 5.6514647,8.2618416 6.2426596,7.8079565 7.3287652,6.9741054 9.0995566,6.9202796 10.457831,7.679829 c 1.250929,0.6995201 1.462406,2.1652312 0.466839,3.235544 -0.504599,0.542483 -1.3359474,0.867368 -2.3980984,0.937159 l -0.6733402,0.04425 -0.2686153,1.142611 C 7.4326704,13.685725 7.252331,14.274647 7.1694106,14.395301 6.7536561,15.000248 5.5226805,15.369446 4.5312203,15.186556 Z M 9.3767978,11.374327 C 10.796915,10.843605 11.058727,9.457739 9.9053511,8.5765088 9.5627404,8.31474 8.7623851,8.0053314 8.6577903,8.0942169 8.6162125,8.1295489 7.9602946,11.277323 7.9590382,11.44754 c -7.82e-4,0.108328 0.046342,0.115924 0.5375284,0.08664 0.2992316,-0.01785 0.6902533,-0.08885 0.8802312,-0.15985 z M 10.080209,4.2058207 C 11.620683,3.7580402 12.689087,2.829561 12.826612,1.8191066 12.871412,1.4899541 12.859668,1.4467215 12.685205,1.298462 12.475875,1.1205727 12.083672,1.0810916 11.796378,1.208988 11.424054,1.3747364 10.687206,1.9276829 10.329289,2.309924 10.037111,2.6219579 9.8964143,2.8508254 9.7395089,3.2693026 9.5003209,3.9072339 9.4007365,4.3553105 9.4981453,4.3553105 c 0.037284,0 0.2992093,-0.067271 0.5820637,-0.1494898 z"
       id="path50" />
  </g>
</svg>
